<svg xmlns="http://www.w3.org/2000/svg" viewBox="0 0 892.7 166.1" id="sardine-bones"><defs/><path fill-rule="evenodd" d="M69 24.2c17 6.8 69.5 23.2 75.3 30.5-10.3-4.5-61.5-24-75.8-27.2 17.7 10.8 57.9 19.2 75.2 31.2C125.8 54.4 92.2 39 73 35.1c12 7.7 71 21.4 65.9 27.8C123 56.5 111.8 52 97.4 48c-4 2.2 46.4 17.2 41.6 18.4-.6.6-14.5-2.6-20.6-4.7-40.6-8 54.5 13.1 7 8-39.9-2-.5 3 10.5 2-8.4 3.6-25.8 3.5-31.6 5.4.7 3.8 34.3-5.6 37.8-1.8-13.7 3.7-28.5 3.4-42.8 6.4 2.8 3.2 72-10 29.3.7-9.9 1.8-12.9 2.2-29 3.4-43 8.8 40.7-4.7 41.6-2.3-4 3.6-60.2 9-70.5 13.8 14.1-.5 36.5-5.6 54.2-8 48-8.3-19.9 7.8-27.5 6.9-10.3 1.1-61 13.3-28.4 7.8 18.6-9.2 75.4-2.3 79.7-23.7 2.4-9 5.7-24.3-3.4-28.4-20.3-8.2-60-26.3-76.3-27.7zm86 41.5c1.5 4.8-5.7 28.8.4 21.6 6.7-2.5 1.2-48.8-.5-21.6zm549-8a11.3 11.3 0 011.6.5 3.6 3.6 0 01-1.6-.5zm-1.8-1c.7 1-1.3 2.5-1.3.6 0-1.6.5-1.8 1.3-.6zm-59.5 0c2.3-.8 1.5-1 3.6-.3 6.2 2.3-7.8 1.6-3.7.3zm-27.4 18.7c-1.6.4-8.9 4.9-7.5-.3.6-1 6.4-.7 7.5.3zm62.6-16.8c-1.7-2.7-1.9.7-3.1 1-3.8-1.3.5-2.7 1.3-3.7 6-4.9 3.7 6.5 1.8 2.7zm-91.3-12.1c4.2-1.6 9.8 4.1 7.1 7-6 1.5-17-4-7-7zm54.7 1.6c-.3-1 3.8-1.3 3.2 0-.5 1-3.1 1.4-3.2 0zM509 44c-5.2-7.9 8.8 4 3.2 2.7-.9 0-2.3-1.2-3.2-2.7zm-66 50.4c1.8-2.5 3.5-4.4 3.7-4.1 0 1.9-12.2 15.5-3.8 4.1zm-54.8-54.6c.4-.5 3 .8 2.8 1.6 0 1.4-3-1.5-2.8-1.6zM186.3 77c-1 0-1.4-1-1.4-3.9-.3-8.9 4.5 4 1.5 3.9zm703.8-20.2a11.9 11.9 0 01-2.3-5c-1-6-4.9-8.4-24-15.3a298.3 298.3 0 00-45.3-13.7 707 707 0 01-24.3-5.4C742.8 5 699.6 1 604.9 0c-29.4-.3-44.2 0-56.8 1l-54 4a1603 1603 0 00-75.2 7.4A3936.8 3936.8 0 00264 33c-36.4 6.3-44.5 7.2-72.2 7.2l-26.2.1-15.3-3.9c-27.4-6.9-45.2-12-89-26C50.2 7 38 3.7 34.1 3.2c-7.2-1-13.8-.5-13.8 1a.9.9 0 00.9 1c1.8 0 13 9.2 23 18.8 15 14.6 24.5 22.5 39.7 33 7.3 5 13.3 9.3 13.4 9.6 0 .6-18.3 8.8-36.2 16.2q-21.3 8.8-49.5 26.7c-16 10.2-16.2 9.9 4.1 10 12.6.1 19.8-.7 41.4-5a1436.8 1436.8 0 01100.7-13.7 90.2 90.2 0 0111.4-.5c6.3 0 9.4.8 23.7 5.6 9 3 25.3 8.9 36.2 13s24.6 8.8 30.4 10.5a2524 2524 0 0099.9 25.2c60 7.9 72.3 9 108.6 10 61.2 1.5 159 2 171.8 1 24.2-2.2 127.4-26.3 142-33.2l35-16.4c38-17.7 58.5-30.4 70.6-43.9 6-6.7 6.8-10.9 2.7-15.3zm-185.1 1c6.5 2.4.8 9.2-6 6.3-5-2.5-3.4 1.7-6.7 0-8.1-8.4 7.2-17 1.6-15.4-9.6-1.3 5.6-4.5 7.5-2.7 1.3 1-2.8 2.4 1 1.6 4-.2 6.8 2.5 10.7 2.4 1 2.4-4.1 8-8.1 7.8zm-19.3-47c8.8 7 43.3 44 11.6 32-1-3 10-2.5.9-12.2.2.2-26.3-28.4-12.5-19.7zm-1 64c1.8 1.8 1.8 1.8-.7 1.2-5.1.3-4-7.2-5-11.5-17.8-.1-3 2.4-13.6 8-4.8 8.7-13.7-37 18-20.9 5.1 5 5.6 3.2 4 12 1.2 7-7.3 5-2.6 11.3zM653 9.7c1.8-.5 47.5 40.8 24.4 37.2-19.2-4.5 3.1-7.2-8.2-15.8-1-4.2-28.3-30-16.2-21.4zm-17.8 42.9c-2.7-1.7-1.2-5 0-2.5.6 1.7 5 0 4.6 2.3 2 5 9.4-2.7 12.7-1.1 6-.7 6.3 23.3.4 20.1-6.5-1.2-4.8-7.7-10.3-7.5-5.9-.3-3.6 5.4-10.4 2.3-6.8-12.7 5.1-11.3 3-13.6zm-8.4-35.8c8.2 9.7 23.2 22.7 26.3 31.8-4.2 1.5-19.5 2.5-14.7-1.2 0-14.2.4-13.7-20.6-37.1-7.6-9.4 5.7 1.6 9 6.5zm-1.4 50.7c-4.6-1-4.6-3.5-9.7-3.2-13.4 7.6-15-13.7-7.7-11.5 5.3 2.2 12.8-2 17.7-1.2 3.2-2.1 1.8 23.3-1.7 16.9-2.6-2.5 3.6 1.1 1.4-1zm-84-47.4c6.7 3.7 12.6 16.2 18.3 15.7 2.6-.6 12.9 6 8.2 9.8-1 7.1-10 3.8-9.6-2 2-1-29.6-28.6-11-15.3-6.2-5.6-27.1-25.7-6-8.2zM555 45.8c0-1.4.8-1 1.4 0 .7 1.3-1.5 1-1.4 0zm-69.3-28.9c9.1 4.3 18.3 16.4 25.4 24 10.3 8.3 2 8-5.9 9.5-11.2-1 8-4.8-2.8-15.2.7-1.4-28-23.7-16.7-18.3zm32 48.3c-6.3-1.8-19.5-4.5-16 4.3-2.8 9.9 14.8-7.2 9.8 2.3-1.7 2-2.5 6.1 1 2.4 2.5-.6-1.7 6.4-2.9 5.2-1.8-.7-1.5 1-.2 1.4 2-1-8.2 20.3-8 11.4.2-2.8 0-3.2-1-2.3-3.5 2-7-33.6-.8-33.6 3.4-.2 11-2.7 14.4-.7 1 1.2 1.3 1 2.7-.8 1.9-1.7 1.3-6.1 3.9-3.6-1.8 2.8 3.3 17.4-2.9 14zm2.4 5.1c-.7 3.8-4.4-1.3-1.2-1.6.8 0 1.3.6 1.1 1.6zM461.8 20l.2.1h-.2c0 .2 41.6 30.9 19.4 32.6 3-5-.7-2.7-3.6-5.5-6.6-4.2-2.4 1.2-4 3.5-3.8 5.8-4.4-.7-3-4.1-.7-5.2 17 2.1 5.9-7.6 2.5.1-32.7-28.6-14.7-19zm-23.7 9.5c10.5 7 24.8 19.1 17.7 16.3-4-2.1 1.7 3.8 2.4 1.6 12.4 1.5-1.1 11.8-6 5.7-5-3.4 5.6-3.3 1-5.5-3.6-6.6-49.2-40-15.2-18zM405.7 28a87.5 87.5 0 0127.7 26.5c-22.6 2.5-7.5-7.6-22-18.2 3.3.3-25.8-19.4-5.7-8.3zm-24.2 4.6c9.8 8 29.4 15.3 28 24.6a322.4 322.4 0 01-28-21c1.1.3.3-.9-2-3-6.3-6-5.1-6.3 2-.6zM358.2 39c4.6 5 37.4 21.4 17.2 21.8-2-.7 6-5.3 2.6-4.9-2.2-.4-37-25-19.8-17zM348 46.3c3.1 2.8 22.2 14.2 10.8 14.2-2.8 0-3.4-1.3-1-2.2.2-4-30.4-23.5-9.8-12zm-9.4-6.4c-.6.7-3.4-.6-3.4-1.6 0-1.1 4 1.2 3.4 1.6zm-21.8-.5c7.8 3.9 16.9 12.4 23.9 17-3.8.7-15.8 1-18-3.3l6.4 1.2c-2.4-4.9-26-23.2-12.3-14.9zm-19.7 6.4c16 12.3 12.2 10.6 16.1 16.7-2.7 0-11 8.5-3.9 5.9 2.2-3 12.2 2 7.7 3-3 2-12.6 3-14.4 3.6.5.4.2 10.6-2 7.1-4.4-5.7 3.2-15-1.3-19.8-6.8-6.6 9.7-.2 5.4-4-2.5-7.9-31.5-29.7-7.5-12.5zm-4 25.7c2.4 2.4-1 1.9-3 3.1-3.2 4-13.7-2.4-5.8-3.5 4.8.3 3.2-4.5 1-3.3-12.7 1.4-8.5-10.3 6.1-2.9 5.7 1-1.3 4.6 1.6 6.6zm-6.7 11c-1.4-3.8 15.2-7.4 5.7-.7-32.4 29.2-15 12.9-5.7.6zM282 53.6c3.9 5.2 13.4 6.7 6.5 7.8-9.2-1-22.6-23.4-6.5-7.8zm-33.6-4.4c-.2.3 23.4 12.6 16.3 12-5.6.7-1 2.3-1.5 6-.2 4.8 5.4 2.5 8.1 5.5-5.2 7.8-13.9-2.5-14.6 4.6-3 1.5-2.1-2.3-3-3.4-2.9 3.1-11 4.1-15.8 2.7-11.6-12.4 18.4-17 4.2-4.1 4.7-1.9 9.3-.7 14.6-.5-2-13.3 6.7-6.4-.8-12.2 22.6 3.9-24.4-15.9-7.5-10.6zM236.8 53c14 8.6 11 14.6 2 7.5 3-2.8-22.5-21-2-7.5zm-7 22c3.8 2.5-6 5.8-11.2 3.8-5.5-1-2-19 4-10 .7 1.3.4 1.6-1.2 2-4.7 1 7.3 3.1 8.4 4.3zm-4.5-11.2c.5 3-13.5-.5-6-1.3 5 .8.6-1.9-2.3-5.3-14.3-15.9 8.3 4.3 8.2 6.7zm-19.6 9.6c16.4 4.3-16.6 20-9.3-7.6 2.3.3 9.8 1.2 10.7 1.7 4.3 2.5-10.5 5.7-1.4 6zm-8.1-17.3c3 2.8 14.7 12.3 3.4 9-4-1.5 2.3-.5 2.3-1.5-.2-.5-17.4-17.2-5.7-7.5zm-12 4.3c8.4 6.7 2.8 8 0 4.9.8-2.8-15.5-18.7 0-4.9zm5.2 16.3c-9.5 15.4-11.6-15.5-1.5-7.1.3 1.8 3 5.3 1.4 7.1zm-16.6-16.5c3.4 4.5 8.5 7.8 2.2 7.4-3 0-3.2-1.8-.9-2 0-2-17.2-21-1.3-5.4zm-6.6 20.9c-1.3 1.6-2.7 2.8-3.2 2.8s-2.3 1.6-4.3 3.6a16.7 16.7 0 01-7.3 4.5l-6.5 1.7a21 21 0 01-5.6.4 33.5 33.5 0 00-8.3 1.2 340.1 340.1 0 01-35.2 6 127.2 127.2 0 00-14.2 2.5 237 237 0 01-33.4 5.4c-4.3.3-12.6 1-18.5 1.7-8.3.8-10.8.9-10.8 0s15.2-8.6 16.9-8.6c.3 0 3.5-1.4 7.2-3A83 83 0 0155.6 95a80.2 80.2 0 0022-9.7c5.5-3 11.5-6.2 13.3-6.9 5.4-2 9.9-5.3 12.2-8.7 3-4.5 2.1-7.9-4-14.2a48.3 48.3 0 00-6.6-4.6c-2.8-1.7-10.4-6.8-16.9-11.4s-13.3-9.2-15.2-10.3-3.4-2.5-3.4-3-.6-.9-1.3-.9a1.9 1.9 0 01-1.6-.7 20.4 20.4 0 00-4.2-3.2c-5.5-3.6-10.4-8-9.8-9s2-1 4 0c.9.4 11.4 3.6 23.3 6.9s23.7 6.9 26 8c5 2 16 5.3 18.3 5.3a15.8 15.8 0 015.2 1.9 110.3 110.3 0 0010.5 4.5c3.9 1.5 11.3 4.7 16.7 7.2 8.6 4 10.6 5.4 18.6 13.3 7.4 7.4 9.6 9 12.5 9.4 2 .4 3.6 1 3.6 1.3a34.6 34.6 0 00.6 3.7c.6 2.6.4 2.9-1.2 2.3-1.4-.4-2 0-2.4 1.3s-1 1.8-3.1 1.3-3.1 0-5.1 2.3zm2.1 10.3c4.7-6.3-2.5-11.8 6.5-9.3 8.7-3-14.1 22.9-6.5 9.3zm8.4 2.9c-.6-1 8-14.5 9-10.2.5.8-8.3 10.9-9 10.2zm21.4-9.7l3 1.2c-33.8 29.9-6.2-6.5-3-1.2zm-1.6 16.6c5.5-4.4 14.2-23 21.8-18.6 0 2.5-20.5 20-21.8 18.6zm19 0c4.8-8 20.2-17.4 15.9-18.7-3-3.9 1-2.8 5-2.2 6.9 3-19.2 21.1-20.9 21zm13.8 2.6c4.5-6 25.8-20.9 25-23.7-.3-1.4-.1-1.5 2-.7 7.7-1.5-25.6 28.3-27 24.4zm47.7-23.5C269 92 253.7 102.2 239.9 111c4.7-4.6 32.3-32 38.5-30.7zm-24.5 34.2c5.9-4.3 13.6-16.7 19.3-15 .3 1.3-23 25.3-19.3 15zm64-38.6c-12.3 12.4-36.4 29.1-49 42-8.5-1 45-42.1 49-42zm9.5 5.6c4.7-.4 3.6-11.4 9.6-6-17.1 15.4-36.4 34-56.4 46 5.1-7.3 41.8-35 46.8-40zm27.7-8.2c2.5-.9 1-2.9-2.5-2.4-6.7-2.3-2 12.2-6.9 8.4-1.4-.8-1.7-15.1-3.1-9.6.2 8.3-15.4-1.7-17.3 6.3-.9 18.3-9.9-30.5.3-19.3 5 3.1 15.8-1.5 16.5 5.7.6 2.6 2.3 3.7 2.3 1.4.6-9.8 11.7-8.1 8.4 1.2 5.2-.2 9.2-1.3 13.7-.7 3.2-3 .3 12.7.3 12.5-3.9 1.3 0-8.8-.9-9-18 14.1-45.7 48.2-70.8 58 10.2-11.4 52-39.3 60-52.5zm11 10.4c10.4-8.7-3.5-20.2 12.2-19.6 8.6 2 9.9-9.3 12.6 1.2 2.8 12.7-3.8 13-3 .5-10.4 4.2-22.3 23.7-30 30-15.3 12-32.9 25-45.3 34.3 12.8-21 37.7-25.5 53.4-46.4zM333.7 130c7.7-5 20.4-17.5 29.2-25.4 10-4.3 33.5-29.5 32.5-44.7 2.3-.4-1.4-2.8-.4-3.8.9-.7.4 1.8 1.6 1.5 1.2-2.1-.5-5.4 5.3-2.4 3.4 0-6.1 8.4 5 7.7 4-4 4 9.7.2 5.2-8.7-3.5-9.9 9-16.5 14.6-7.1 9.3-57.2 55.8-56.9 47.3zm31.5-7c15-12.2 48.6-43.7 49-62.4-3.2-10.1 14.4 3.6 21.6.3-3.9-5.4 9.4-10.5 4-4.5l-2.5 2.1c9.8-4.2 1.5 21.2-1.6 6.9-.7-.5-.8 0-.5 1.5.8 4-1-3-5.3.9-8.4 1.1-4.5 5.7-7.3 4.5-1.9-1.9-7.7 3.2-8.7 1.1.8-1.2 5-9.4 2.2-10.2-2-.4.3 5.8-1 6.2-2 1.6-3 4.5-1.7 6.2 20-4.7 2.5 4.8-3.2 10.6-13.4 12.7-83.9 78.1-45 36.7zm63.6-40.6c-10.3 9.9 4.3-8.5 1.6-11.8.3-2.1 6.4 2.8 5.5 4.5 0 4.8-4.3 10.1-28 34.8-22.5 23-19.2 18.6-35.9 32.6 18.4-19.2 62-61.2 56.8-60.1zm-28 60.8a306 306 0 0046.8-58c3.3.1-2.4-1.6-1-3 .6-4.5 6-5.7 2.6-9-1-3.6-1.5 4.1-2.5-.4-1.7-6-2-10.4-.5-14.8-1.3-2.7 6 .7 6.1 1.6 1.3 4.1 16.8-8.7 15.2-3.1-.7 1.8-1.7 17-4.2 10.5 0-1.3-.3-1.3-1.4.4-3 3.5-8-.7-9.7 5 15.4 9.5-3.5 18.8-11.7 31-3 5.1-53 56.3-39.7 39.8zm20.2 10.4c5.3-13.5 54-46.8 52.3-63.8-1.4-4-4.4-30.5-.6-33.1 5.7.3 14.1-.6 19.8-3.4 2-3.3 1.7 1.2 1.6 5.6-2.5 25-.8-3.4-18 13.8 4.8 4.3 16-2.3 16.1 1.4-8-.2-16.3 20-7.5 9.2 9-9.7.4 4.5-3.1 8.4-3.7 2.5-9.3 17.5-11.5 15.7-6.6 1-37 41.8-49.1 46.2zm27.1-.1c7.6-15 21.4-25.6 33.1-39.6 7.4-5.2 16.5-25.6 18-20.1-7.7 12.7-38.7 50.9-51 59.6zm21.7-3.3c19.8-20.3 56.9-47.4 53.7-75-2.5-3 6.6-6.5 7.2-4.7-2.2 2.5 1.2 3.7 1 1.9-.4-3.4 6-2.6 7.7-4.2 3.1-2.7 1.4.7-1.3 3.2-6.5 18.2-19.7 29.6-32.2 45.8-6.1 6.2-35.7 41.1-36.1 33zm58.2-82.6c-.3.2-1 0-1.6-.7-2.2-1.9 2.4 0 1.6.6zm-26 86.9c9.2-14.1 25.9-31.3 33.8-47.2 6.7-12.7 20.5-34 12.1-46.4-3.2-2-1.6 4.4-3 5.5-1 .7-2.9-3.1-2.3-4.7 1-4-4.8 5.7-7 5.2-2 1-12.4-1.7-10.6-6.4-.7-8.4 4-4.4 7.2-5.6 3.3-.2 4.3-3.3 7.8-2 3.2 2.6 5.8-3.1 2.3-2-2.7.6-1.4-1.4-4.1-2.2-4.4-1.4-7.7 8.6-13.6 1.4-8.5-9 6-6.5-10.4-16.4.8 1.5-3 0-1.2-1.3 4.8-1.7 9 2.7-.5-6.5-11.4-9.2-8-12.5 2.7-2.7 9.1 13 31 18.3 31.4 32-1.3 9.4 1.2-2.3 2.7-3.2 6.9-2.5-.1 4.5 7 1.8.3 2-5.5 2-1.7 4.7 2.7 1-3.6 8.4-.4 8.3 2-3.3 2.1-4.6 6.4-4.7-1.5-3.8-8-3.7-1.8-8.2 16.3-11.4 15.8.8 13.7 12.8-4.5 6.8 0-7.3-4.4-.8-4.1 4.7-2.7-4.8-7.5 1.4.5 2.3-8.3.3-7.3 3-1.3 2 9 3.5 7.4 5-1.8 2.7 0 11.8-6 9-3.7-3.4-44.2 78.9-52.7 70.1zm38.2 1.3c-14.1 5-4.4-4 2.5-15.8 9.6-17 14-18.6 21.8-31.8 10.2-12.6 7.4-25 17.5-33a1.4 1.4 0 00-1.4-1.4c-9.7-6.6 7.4-1.7 5-7.3-1.5-1.7-1.7-4.7-5.2-1-8.2 4.4-4.6-14.6-4-18.7-2.2-6.6 6.2-12.1 4.7-4.7-1.7 6.4.8 1 4 1.2 19.8-7-39-47-13.4-31.1 10.5 12.1 36.2 28.3 23 34-6.2.7 11.8 5.5 9.6-6.3 2-2.9 7.7-4.6 7.4 1.4.3 8.3 5-3.2 1-4.4 0-6.6-17.6-23.2-20.4-28.8 1.9 1 35.4 32.5 31.5 38.1-3.7-.5-7.2 7-9.8 1.3-.3-4.5-12 6-12 2-1.7-3.3-3.5 2.9-.6 4.2 1.2 25-11.6-2-12 8.4-10 31-15.6 37.5-29.7 62-8.3 11-11.8 20.9-19.5 31.7zm19.6-.9c10.3-20.6 26.8-43.5 35.4-65 2.8-4 3-5.1.8-5.1-1.3-.6 3.7-8.5 6.4-12.6 2.5-1.5 13.7-6.6 13-2-3.1 2.5 14 2.6 5 5.4-2.2-2.7-17.7 22.7-20.7 26.1-10.2 9.8-26.1 66.6-40 53.2zm75-73c-4.2-1.4 8-6.6 2.2-6.5a4.5 4.5 0 01-2.7 0c-6-3.1 10.7-1.6 7.1-6-1-3.8 2.4-3 3.3-.5 10 9-4.5 20.5-6.1 27-1 5.7-22.3 47.8-26 58-18.5 15.6 26.6-62.3 22.1-72zm-1 73.2c7-20.8 34.5-60.4 29.8-68.7-3.3-2 1.2-1 2.5-1.3-8.5-6.4-2.2-7.3 3.6-8.4 5.6 5.8 1.3-10 5.9-8 2.2 0 2.3.1 1.7 3.8-2.9 4.7 0 13-3.4 15.9-12.9 14-24.4 62.5-40.1 66.7zM701.5 96c-8.4 16.2-17.4 52.3-35 52.6C685.1 135 685.1 69.9 702 76c19.7-3.6 1.3 9-.5 20zM715.7 69c4.2 3.4-.9 1.1-1.1 3.1.8 2.3-7.4.3-7.6 1.6-.8 4-20-4.2-10.8-4.5 1.1.6 16.6-.4 15.1-3-2.3-3.4.4-3 .9-5.2-.7-7.2 2.7-1.8 4.9 2 5.7 9.8-5.1 1.7-1.4 6zm162.9-6.6c-9.3 23.2-52.5 36.5-73.5 50.5-1 1.5-5.8.1-4.3 1.1-.8 3.7-14.6 6-18.4 8-9.9 8.7-34.8 15.3-47 5.1-18.2-16.5-12.6-14-9.4-44.9 8.1-30-15-74 31.7-61.8 32.6 11 74.8 14.1 106.2 26.3-1-1.7 1-1.4 7.9 1.2 12.4 4.6 7.4 7 6.8 14.5z"/></svg>