<svg xmlns="http://www.w3.org/2000/svg" viewBox="0 0 892.7 166.1"><defs/><path id="sardineshape" fill="#13635c" d="M890.1 56.8a12.2 12.2 0 01-2.3-5c-1.1-6-5-8.4-24-15.3a298 298 0 00-45.3-13.7c-4.3-.8-15.2-3.2-24.3-5.4C742.9 5 699.6 1 605 0c-29.5-.3-44.3 0-56.9 1l-54 4a1643.8 1643.8 0 00-75.2 7.4 3977.8 3977.8 0 00-155 20.6c-36.4 6.4-44.5 7.2-72.2 7.3h-26.2l-15.3-3.9c-27.4-6.9-45.2-12-89-26C50.2 7 38 3.7 34.1 3.2c-7.2-1-13.8-.5-13.8 1a.9.9 0 00.9 1c1.8 0 13 9.2 23 18.9 15 14.5 24.5 22.4 39.7 32.8 7.3 5 13.3 9.4 13.4 9.7 0 .6-18.3 8.8-36.2 16.2q-21.3 8.8-49.5 26.8c-16 10.2-16.2 9.8 4.1 10 12.6 0 19.8-.8 41.4-5a1445.1 1445.1 0 01100.7-13.8 90.2 90.2 0 0111.4-.5c6.3.1 9.4.8 23.7 5.7 9 3 25.3 8.8 36.2 12.9s24.6 8.8 30.4 10.4a2504 2504 0 0099.9 25.3c60.1 7.9 72.3 9 108.6 9.9 61.2 1.6 159 2.1 171.8 1 24.3-2.1 127.4-26.2 142-33.1l35-16.4c38-17.7 58.5-30.5 70.6-43.9 6-6.7 6.8-10.9 2.7-15.3z"/></svg>